<svg xmlns="http://www.w3.org/2000/svg" viewBox="0 0 930.84 284.7"><defs><style>.cls-1{fill:#fff;}.cls-2{fill:#ce0033;}</style></defs><g id="Calque_2" data-name="Calque 2"><g id="Calque_1-2" data-name="Calque 1"><path class="cls-1" d="M98.57,103.06l.17,0h-.17Z"/><path d="M286.69,128.24c-9.87-1.73-21.84,3.78-27.39,12.7-.83,1.33-1.4,2.22-3.34,1.92-10.06-1.53-20.16-2.82-30.23-4.35a3.73,3.73,0,0,1-2.36-2.13,30.94,30.94,0,0,1-1.45-6.26A61.86,61.86,0,0,0,207.86,98.3c-3-3.6-6.59-6.75-10-10.19,8-14.29,16-28.44,24.06-42.72,14.56,3.7,26.05-1.46,31.28-13.72,4.56-10.68.89-22.59-8.76-28.47C234.46-2.88,220.1,0,211.9,9.61s-7.09,19.79,3.78,32.31q-11.85,21-23.75,42.13C172.88,72.06,146.6,71.87,125,82c-1.28.59-2.55,1.23-3.79,1.89s-2.47,1.38-3.68,2.12l-1.11.71c-1.12.71-2.22,1.46-3.29,2.24-.72.51-1.42,1-2.11,1.59s-1.39,1.11-2.07,1.68-1.07.92-1.6,1.4-1,1-1.56,1.46-1,1-1.51,1.5a63,63,0,0,0-5.55,6.52h-.17a1.47,1.47,0,0,1-.48-.07C82,94.8,65.86,86.58,49.7,78.47c-1.89-.94-1.86-2-1.54-3.81,1.66-9.07-1.24-16.57-8.49-22.17C27.05,42.74,5.38,50,.48,65.75A11.91,11.91,0,0,0,.64,73C4,81.88,9.94,88.73,18.7,92.72c7.12,3.24,13.91,2.2,20-2.84,2.07-1.73,4-3.62,6.41-5.79l49.31,25C77.2,143.28,84.22,172.69,110.46,199c-1.47,1.87-3.06,3.92-4.66,5.95l-10.17,13,5.35,4.77,15.27-19.41c4.31,2.09,8.15,4.27,12.23,5.88,16.2,6.38,32.65,6.41,49.19,1.3,1.47-.46,2.85-1.43,4,.68,2.13,3.84,4.47,7.56,6.81,11.47-.92.68-1.73,1.27-2.52,1.87-11.75,8.92-12.52,24.39-1.74,34.44,12.31,11.48,33.67,9,40.81-12.68,4.41-13.35-5.29-27.1-19.36-28.33-3.61-.31-7.32.48-11.19.78-2.28-3.81-4.69-7.85-7.23-12.08a68.45,68.45,0,0,0,27.59-24.91,63.55,63.55,0,0,0,9.77-36l29.94,4.2c1.9,5.32,2.72,10.19,5.19,14,5.67,8.69,14.3,12.64,24.56,11,10.66-1.69,17.23-9,20.17-18.88C308.13,143.73,299.22,130.44,286.69,128.24ZM232.7,6.89a15.52,15.52,0,0,1,0,31,15.76,15.76,0,0,1-15.57-15.56A15.58,15.58,0,0,1,232.7,6.89ZM26.19,86A15.74,15.74,0,0,1,10.58,70.87C10.45,62.43,17.36,55,25.41,55c8.25,0,16,7.33,16.1,15.22A15.69,15.69,0,0,1,26.19,86ZM202.94,224.72c7.05,0,15.69,9.19,15.68,16.63,0,7.65-7,14.1-15.24,14.13a15.36,15.36,0,0,1-15.49-15.13C187.78,232,194.8,224.69,202.94,224.72ZM158,196.39a57.37,57.37,0,1,1,57.51-57.32A57.22,57.22,0,0,1,158,196.39Zm124.38-30.46a15.2,15.2,0,0,1-15.18-15.37c0-8.34,6.88-15.89,14.79-15.33,7.55.53,16.34,5.54,16.07,15.44A15.36,15.36,0,0,1,282.37,165.93Zm-196.57,76L101,222.61l-5.36-4.77q-7.38,9.36-14.79,18.71c-.7.88-2.33,2-3,1.74-7.63-2.89-14.73-.88-21.71,2.08-8.43,3.59-13.79,9.8-14.88,19.07-1,8.73,3,15.29,9.72,20.42,15.62,12,36.11-.47,40-13.45a21.5,21.5,0,0,0,.7-10.62C90.49,251.14,87.94,246.83,85.8,241.93Zm-16.39,33A15.61,15.61,0,0,1,54.16,259.5a15.41,15.41,0,1,1,15.25,15.44Z"/><path class="cls-2" d="M335.27,193V82.09h48.12q18.24,0,28.15,8.73t9.91,24.45A33.32,33.32,0,0,1,417,132.89a28.93,28.93,0,0,1-13,11.32q-8.49,3.93-20.6,3.93l1.42-2.36H390a20,20,0,0,1,11.24,3.15q4.8,3.15,8.41,9.91L428.21,193H406l-19.19-35.38a18.34,18.34,0,0,0-4.25-5.43,13.74,13.74,0,0,0-5.34-2.75,27.56,27.56,0,0,0-6.92-.79H355.4V193Zm20.13-59.29h24.53q10.85,0,16.44-4.48T402,115.75q0-8.82-5.58-13.29T379.93,98H355.4Z"/><path class="cls-2" d="M443.15,193V82.09h73.76v16H462.49v30.51h51v16h-51v32.24h54.42v16Z"/><path class="cls-2" d="M573.68,194.54a89.17,89.17,0,0,1-16.59-1.5,71.22,71.22,0,0,1-14.63-4.32A55.1,55.1,0,0,1,530.59,182l6.13-15.88a68.64,68.64,0,0,0,10.93,6.21,57.89,57.89,0,0,0,12.27,3.93,67.83,67.83,0,0,0,13.76,1.34q12.42,0,18.09-4.17a12.81,12.81,0,0,0,5.66-10.77,11,11,0,0,0-1.73-6.21,13.68,13.68,0,0,0-5.66-4.48,43.79,43.79,0,0,0-10.38-3.15l-17.3-3.62Q547.42,142,540.1,134.54t-7.31-19.74a30.27,30.27,0,0,1,5.51-18.08,35.76,35.76,0,0,1,15.25-12A55.9,55.9,0,0,1,576,80.52,70,70,0,0,1,590.59,82a55.6,55.6,0,0,1,12.89,4.4,43.38,43.38,0,0,1,10.31,7l-6.14,15.1a46.51,46.51,0,0,0-14.47-8.26,52.18,52.18,0,0,0-17.3-2.75,33.72,33.72,0,0,0-12.42,2,17.56,17.56,0,0,0-7.94,5.74,14.16,14.16,0,0,0-2.75,8.73,11.53,11.53,0,0,0,3.77,9q3.78,3.38,12.9,5.27l17.14,3.61q15.57,3.31,23.19,10.38t7.63,18.88a29.45,29.45,0,0,1-5.34,17.45,34.66,34.66,0,0,1-15.18,11.72Q587,194.54,573.68,194.54Z"/><path class="cls-2" d="M622,193,672.13,82.09h16.52L738.81,193H718.37L705,161.82l8.49,5.51H647.13l8.49-5.51L642.41,193Zm58.19-89-22,52.37-4.09-5h52.52l-3.93,5L680.47,104Z"/><path class="cls-2" d="M787.88,194.54a89.17,89.17,0,0,1-16.59-1.5,71.22,71.22,0,0,1-14.63-4.32A54.86,54.86,0,0,1,744.79,182l6.13-15.88a68.2,68.2,0,0,0,10.93,6.21,57.89,57.89,0,0,0,12.27,3.93,67.83,67.83,0,0,0,13.76,1.34q12.42,0,18.09-4.17a12.81,12.81,0,0,0,5.66-10.77,11,11,0,0,0-1.73-6.21,13.68,13.68,0,0,0-5.66-4.48,44.08,44.08,0,0,0-10.38-3.15l-17.3-3.62q-15-3.14-22.26-10.61T747,114.8a30.26,30.26,0,0,1,5.5-18.08,35.8,35.8,0,0,1,15.26-12,55.9,55.9,0,0,1,22.49-4.24A70,70,0,0,1,804.79,82a55.6,55.6,0,0,1,12.89,4.4,43.32,43.32,0,0,1,10.3,7l-6.13,15.1a46.51,46.51,0,0,0-14.47-8.26,52.18,52.18,0,0,0-17.3-2.75,33.72,33.72,0,0,0-12.42,2,17.56,17.56,0,0,0-7.94,5.74A14.17,14.17,0,0,0,767,114a11.54,11.54,0,0,0,3.78,9q3.76,3.38,12.89,5.27l17.15,3.61q15.57,3.31,23.19,10.38t7.63,18.88a29.38,29.38,0,0,1-5.35,17.45,34.57,34.57,0,0,1-15.17,11.72Q801.24,194.54,787.88,194.54Z"/><path class="cls-2" d="M887.12,194.54a89.36,89.36,0,0,1-16.6-1.5,71.12,71.12,0,0,1-14.62-4.32A54.93,54.93,0,0,1,844,182l6.14-15.88a68.2,68.2,0,0,0,10.93,6.21,57.62,57.62,0,0,0,12.26,3.93,67.86,67.86,0,0,0,13.77,1.34q12.42,0,18.08-4.17a12.79,12.79,0,0,0,5.66-10.77,10.88,10.88,0,0,0-1.73-6.21,13.62,13.62,0,0,0-5.66-4.48,43.79,43.79,0,0,0-10.38-3.15l-17.3-3.62q-14.94-3.14-22.25-10.61t-7.31-19.74a30.26,30.26,0,0,1,5.5-18.08,35.76,35.76,0,0,1,15.25-12,55.9,55.9,0,0,1,22.49-4.24A69.84,69.84,0,0,1,904,82a55.52,55.52,0,0,1,12.9,4.4,43.52,43.52,0,0,1,10.3,7l-6.14,15.1a46.46,46.46,0,0,0-14.46-8.26,52.22,52.22,0,0,0-17.3-2.75,33.74,33.74,0,0,0-12.43,2,17.56,17.56,0,0,0-7.94,5.74A14.16,14.16,0,0,0,866.2,114a11.57,11.57,0,0,0,3.77,9q3.78,3.38,12.9,5.27L900,131.94q15.57,3.31,23.2,10.38t7.63,18.88a29.45,29.45,0,0,1-5.35,17.45,34.66,34.66,0,0,1-15.18,11.72Q900.49,194.54,887.12,194.54Z"/><path d="M333.77,237.65V214h9.36a8.62,8.62,0,0,1,5.84,1.78,6.34,6.34,0,0,1,2,5.06,6.8,6.8,0,0,1-.92,3.61,5.77,5.77,0,0,1-2.7,2.32,10.52,10.52,0,0,1-4.26.79l.34-.44h.67a3.9,3.9,0,0,1,2.28.67,6.08,6.08,0,0,1,1.78,2.15l4.16,7.71h-3l-4.1-7.58a5.22,5.22,0,0,0-1.12-1.48,3.4,3.4,0,0,0-1.41-.73,7.45,7.45,0,0,0-1.89-.2h-4.3v10Zm2.75-12.18h6.21a6.45,6.45,0,0,0,4.16-1.15,4.24,4.24,0,0,0,1.41-3.48,4.15,4.15,0,0,0-1.41-3.4,6.45,6.45,0,0,0-4.16-1.16h-6.21Z"/><path d="M362.82,238a9.1,9.1,0,0,1-4.44-1,7.2,7.2,0,0,1-2.89-2.9,10.35,10.35,0,0,1,0-8.94,7.41,7.41,0,0,1,6.84-4,7.05,7.05,0,0,1,3.79,1,6.54,6.54,0,0,1,2.44,2.75,9.78,9.78,0,0,1,.85,4.26v1H356.55v-1.78h11l-.54.44a6.58,6.58,0,0,0-1.19-4.18,4.18,4.18,0,0,0-3.47-1.49,5.09,5.09,0,0,0-2.9.79,4.78,4.78,0,0,0-1.8,2.18,8.14,8.14,0,0,0-.6,3.24v.2a8.26,8.26,0,0,0,.65,3.45,4.56,4.56,0,0,0,2,2.13,6.42,6.42,0,0,0,3.12.73,8.9,8.9,0,0,0,2.81-.46,7.62,7.62,0,0,0,2.56-1.49l.94,1.91a8.18,8.18,0,0,1-2.82,1.61A10.47,10.47,0,0,1,362.82,238Zm-1.47-18.79,3.45-6.78h2.92l-4.43,6.78Z"/><path d="M378.83,238a11.83,11.83,0,0,1-2.47-.26,10.77,10.77,0,0,1-2.21-.7,7.1,7.1,0,0,1-1.76-1.09l.87-1.91a8.57,8.57,0,0,0,1.74,1.05,9.14,9.14,0,0,0,1.92.62,9.24,9.24,0,0,0,2,.21,4.89,4.89,0,0,0,2.88-.71,2.24,2.24,0,0,0,1-1.91,1.86,1.86,0,0,0-.63-1.49,4.6,4.6,0,0,0-2-.86l-3.05-.67a5.86,5.86,0,0,1-3.14-1.51,3.88,3.88,0,0,1-1-2.79,4.31,4.31,0,0,1,.79-2.6,5.1,5.1,0,0,1,2.23-1.69,8.67,8.67,0,0,1,3.35-.6,9.8,9.8,0,0,1,2.19.23,9.3,9.3,0,0,1,2,.69,6.14,6.14,0,0,1,1.59,1.12l-.9,1.92a6.25,6.25,0,0,0-1.45-1,7.8,7.8,0,0,0-1.66-.64,7.19,7.19,0,0,0-1.73-.21,4.68,4.68,0,0,0-2.85.73,2.34,2.34,0,0,0-1,1.95,2.08,2.08,0,0,0,.6,1.54,3.67,3.67,0,0,0,1.88.88l3.06.63a6.83,6.83,0,0,1,3.27,1.5,3.62,3.62,0,0,1,1.09,2.76,4.19,4.19,0,0,1-.81,2.57,5,5,0,0,1-2.26,1.68A9.24,9.24,0,0,1,378.83,238Z"/><path d="M396.81,238a9.1,9.1,0,0,1-4.44-1,7.08,7.08,0,0,1-2.89-2.9,10.4,10.4,0,0,1,0-8.94,7.44,7.44,0,0,1,6.85-4,7.07,7.07,0,0,1,3.79,1,6.45,6.45,0,0,1,2.43,2.75,9.78,9.78,0,0,1,.86,4.26v1H390.54v-1.78h11l-.54.44a6.58,6.58,0,0,0-1.19-4.18,4.2,4.2,0,0,0-3.47-1.49,5.13,5.13,0,0,0-2.91.79,4.83,4.83,0,0,0-1.79,2.18,8.14,8.14,0,0,0-.61,3.24v.2a8.1,8.1,0,0,0,.66,3.45,4.52,4.52,0,0,0,2,2.13,6.37,6.37,0,0,0,3.12.73,8.83,8.83,0,0,0,2.8-.46,7.66,7.66,0,0,0,2.57-1.49l.94,1.91a8.18,8.18,0,0,1-2.82,1.61A10.47,10.47,0,0,1,396.81,238Z"/><path d="M412.45,238a6.69,6.69,0,0,1-3-.66,5.23,5.23,0,0,1-2.09-1.79,4.41,4.41,0,0,1-.78-2.55,4.15,4.15,0,0,1,.93-2.86,5.42,5.42,0,0,1,3.05-1.47,30.44,30.44,0,0,1,5.82-.44h1.51V230h-1.47c-1.37,0-2.51.05-3.43.13a8,8,0,0,0-2.18.47,2.4,2.4,0,0,0-1.14.88,2.49,2.49,0,0,0-.33,1.34,2.89,2.89,0,0,0,.95,2.25,3.73,3.73,0,0,0,2.6.87,4.34,4.34,0,0,0,2.37-.64,4.43,4.43,0,0,0,1.61-1.74,5.39,5.39,0,0,0,.59-2.55v-3.83a4.41,4.41,0,0,0-.84-3,3.55,3.55,0,0,0-2.75-.92,9.75,9.75,0,0,0-2.86.42,11.11,11.11,0,0,0-2.81,1.36l-.94-2a9.77,9.77,0,0,1,2-1.06,12.59,12.59,0,0,1,2.31-.69,11.91,11.91,0,0,1,2.32-.23,7.87,7.87,0,0,1,3.48.68,4.45,4.45,0,0,1,2.05,2.08,8.23,8.23,0,0,1,.67,3.58v10.26h-2.55v-3.79h.3a4.84,4.84,0,0,1-1,2.18,5,5,0,0,1-1.86,1.41A5.88,5.88,0,0,1,412.45,238Z"/><path d="M430.87,238a6.61,6.61,0,0,1-3.28-.73,4.5,4.5,0,0,1-1.94-2.16,8.62,8.62,0,0,1-.66-3.59V221.35h2.72v10.1a6.41,6.41,0,0,0,.39,2.4,2.64,2.64,0,0,0,1.22,1.4,4.27,4.27,0,0,0,2.08.46,4.43,4.43,0,0,0,4.1-2.42,5.67,5.67,0,0,0,.6-2.68v-9.26h2.72v16.3h-2.65V233.9h.43a5.77,5.77,0,0,1-2.19,3A6.17,6.17,0,0,1,430.87,238Z"/><path d="M458.75,238a6.93,6.93,0,0,1-3.81-1,6.85,6.85,0,0,1-2.52-2.94,11.8,11.8,0,0,1,0-9,6.63,6.63,0,0,1,2.52-2.92,7,7,0,0,1,3.81-1,6.49,6.49,0,0,1,3.79,1.1,5.36,5.36,0,0,1,2.11,3h-.37V214H467v23.65h-2.65v-3.89h.33a5.38,5.38,0,0,1-2.13,3.06A6.36,6.36,0,0,1,458.75,238Zm.57-2.18a4.56,4.56,0,0,0,3.67-1.63,8.65,8.65,0,0,0,0-9.31,5,5,0,0,0-7.33,0,8.54,8.54,0,0,0,0,9.31A4.56,4.56,0,0,0,459.32,235.78Z"/><path d="M479.45,238a9.12,9.12,0,0,1-4.45-1,7.12,7.12,0,0,1-2.88-2.9,9.18,9.18,0,0,1-1-4.5,9.33,9.33,0,0,1,1-4.44,7.44,7.44,0,0,1,6.84-4,7.11,7.11,0,0,1,3.8,1,6.45,6.45,0,0,1,2.43,2.75A9.78,9.78,0,0,1,486,229v1H473.17v-1.78h11l-.54.44a6.52,6.52,0,0,0-1.19-4.18,4.18,4.18,0,0,0-3.47-1.49,5.09,5.09,0,0,0-2.9.79,4.85,4.85,0,0,0-1.8,2.18,8.14,8.14,0,0,0-.6,3.24v.2a8.26,8.26,0,0,0,.65,3.45,4.53,4.53,0,0,0,2,2.13,6.37,6.37,0,0,0,3.12.73,8.88,8.88,0,0,0,2.8-.46,7.75,7.75,0,0,0,2.57-1.49l.93,1.91a8,8,0,0,1-2.81,1.61A10.51,10.51,0,0,1,479.45,238Z"/><path d="M495.45,238a11.83,11.83,0,0,1-2.47-.26,10.77,10.77,0,0,1-2.21-.7,7.1,7.1,0,0,1-1.76-1.09l.87-1.91a8.38,8.38,0,0,0,1.75,1.05,8.88,8.88,0,0,0,1.91.62,9.38,9.38,0,0,0,2,.21,4.89,4.89,0,0,0,2.88-.71,2.24,2.24,0,0,0,1-1.91,1.87,1.87,0,0,0-.64-1.49,4.61,4.61,0,0,0-2-.86l-3.06-.67a5.79,5.79,0,0,1-3.13-1.51,3.85,3.85,0,0,1-1-2.79,4.31,4.31,0,0,1,.79-2.6,5.16,5.16,0,0,1,2.23-1.69,8.69,8.69,0,0,1,3.36-.6,9.71,9.71,0,0,1,2.18.23,9.3,9.3,0,0,1,2,.69,5.82,5.82,0,0,1,1.59,1.12l-.9,1.92a6.41,6.41,0,0,0-1.44-1,7.88,7.88,0,0,0-1.67-.64,7.17,7.17,0,0,0-1.72-.21,4.7,4.7,0,0,0-2.86.73,2.37,2.37,0,0,0-1,1.95,2,2,0,0,0,.61,1.54,3.59,3.59,0,0,0,1.87.88l3.06.63a6.83,6.83,0,0,1,3.27,1.5,3.59,3.59,0,0,1,1.09,2.76,4.19,4.19,0,0,1-.81,2.57,5,5,0,0,1-2.26,1.68A9.21,9.21,0,0,1,495.45,238Z"/><path d="M512.8,237.65,523.23,214h2.35L536,237.65h-2.85l-2.92-6.74,1.34.7H517.16l1.37-.7-2.88,6.74Zm11.57-20.43L519,229.94l-.81-.64h12.42l-.74.64-5.4-12.72Z"/><path d="M544.17,238a4.64,4.64,0,0,1-3.74-1.48,6.32,6.32,0,0,1-1.26-4.23V214h2.72v18.05a5.49,5.49,0,0,0,.31,2,2.45,2.45,0,0,0,1,1.21,2.87,2.87,0,0,0,1.58.4,7,7,0,0,0,.79,0,4.18,4.18,0,0,0,.72-.15l-.07,2.28c-.36.07-.7.12-1,.17A8.24,8.24,0,0,1,544.17,238Z"/><path d="M554.87,238a6.54,6.54,0,0,1-3.27-.73,4.57,4.57,0,0,1-2-2.16,8.79,8.79,0,0,1-.65-3.59V221.35h2.71v10.1a6.41,6.41,0,0,0,.39,2.4,2.69,2.69,0,0,0,1.23,1.4,4.21,4.21,0,0,0,2.08.46,4.53,4.53,0,0,0,2.44-.64,4.44,4.44,0,0,0,1.65-1.78,5.67,5.67,0,0,0,.6-2.68v-9.26h2.72v16.3h-2.65V233.9h.44a5.78,5.78,0,0,1-2.2,3A6.17,6.17,0,0,1,554.87,238Z"/><path d="M568,237.65v-16.3h2.65V225h-.37a5.83,5.83,0,0,1,1.19-2.13,5,5,0,0,1,1.88-1.34,6.22,6.22,0,0,1,2.4-.45,5.4,5.4,0,0,1,3.37,1,5,5,0,0,1,1.73,3.07h-.51a5.61,5.61,0,0,1,2.17-3,6.16,6.16,0,0,1,3.64-1.09,5.86,5.86,0,0,1,3,.7,4.32,4.32,0,0,1,1.8,2.13,9.35,9.35,0,0,1,.6,3.61v10.16h-2.71v-10a5.57,5.57,0,0,0-.78-3.3,3,3,0,0,0-2.61-1.06,4.1,4.1,0,0,0-2.3.64,4,4,0,0,0-1.51,1.79,6.6,6.6,0,0,0-.52,2.74v9.22h-2.72v-10a5.49,5.49,0,0,0-.79-3.3,3,3,0,0,0-2.6-1.06,4,4,0,0,0-3.81,2.43,6.76,6.76,0,0,0-.52,2.74v9.22Z"/><path d="M596.64,237.65v-16.3h2.65V225h-.37a5.54,5.54,0,0,1,2.3-2.93,6.81,6.81,0,0,1,3.67-1,6.7,6.7,0,0,1,3.24.7,4.42,4.42,0,0,1,1.93,2.13,8.94,8.94,0,0,1,.64,3.61v10.16H608v-10a6.77,6.77,0,0,0-.39-2.49,2.71,2.71,0,0,0-1.21-1.44,4.25,4.25,0,0,0-2.13-.47,5.24,5.24,0,0,0-2.58.62,4.26,4.26,0,0,0-1.71,1.78,5.78,5.78,0,0,0-.6,2.7v9.29Z"/><path d="M615.36,217.29v-3h3.35v3Zm.33,20.36v-16.3h2.72v16.3Z"/><path d="M638.31,238a6.64,6.64,0,0,1-6.32-4,11.8,11.8,0,0,1,0-9,6.67,6.67,0,0,1,2.51-2.92,7,7,0,0,1,3.81-1,6.47,6.47,0,0,1,3.79,1.1,5.32,5.32,0,0,1,2.11,3h-.37V214h2.72v23.65h-2.65v-3.89h.34a5.48,5.48,0,0,1-2.13,3.06A6.39,6.39,0,0,1,638.31,238Zm.57-2.18a4.54,4.54,0,0,0,3.67-1.63,8.65,8.65,0,0,0,0-9.31,5,5,0,0,0-7.33,0,8.59,8.59,0,0,0,0,9.31A4.58,4.58,0,0,0,638.88,235.78Z"/><path d="M659,238a9.17,9.17,0,0,1-4.45-1,7.12,7.12,0,0,1-2.88-2.9,10.3,10.3,0,0,1,0-8.94,7.44,7.44,0,0,1,6.85-4,7.07,7.07,0,0,1,3.79,1,6.45,6.45,0,0,1,2.43,2.75,9.78,9.78,0,0,1,.86,4.26v1H652.74v-1.78h11l-.53.44a6.58,6.58,0,0,0-1.19-4.18,4.22,4.22,0,0,0-3.48-1.49,5.09,5.09,0,0,0-2.9.79,4.83,4.83,0,0,0-1.79,2.18,8,8,0,0,0-.61,3.24v.2a8.1,8.1,0,0,0,.66,3.45,4.52,4.52,0,0,0,2,2.13,6.37,6.37,0,0,0,3.12.73,8.83,8.83,0,0,0,2.8-.46,7.66,7.66,0,0,0,2.57-1.49l.94,1.91a8.18,8.18,0,0,1-2.82,1.61A10.51,10.51,0,0,1,659,238Z"/><path d="M686.15,238a17.38,17.38,0,0,1-3.47-.34,13.43,13.43,0,0,1-3-1,11.39,11.39,0,0,1-2.46-1.52l1-2.22a15.54,15.54,0,0,0,2.33,1.43,10.74,10.74,0,0,0,2.58.87,15.16,15.16,0,0,0,3,.29,7.31,7.31,0,0,0,4.48-1.13,3.58,3.58,0,0,0,1.46-3,3,3,0,0,0-.45-1.67,3.53,3.53,0,0,0-1.48-1.21,10.8,10.8,0,0,0-2.67-.84L684,227a9.33,9.33,0,0,1-4.71-2.19,5.46,5.46,0,0,1-1.56-4.08,6.3,6.3,0,0,1,1.09-3.69,7.12,7.12,0,0,1,3-2.45,11,11,0,0,1,4.48-.87,13.73,13.73,0,0,1,3.06.33,11.24,11.24,0,0,1,2.66,1,9.17,9.17,0,0,1,2.17,1.6l-1,2.14a9.7,9.7,0,0,0-3.18-2,10.63,10.63,0,0,0-3.76-.62,8.11,8.11,0,0,0-3.07.53,4.53,4.53,0,0,0-2,1.56,4,4,0,0,0-.73,2.37,3.36,3.36,0,0,0,1,2.55,6.53,6.53,0,0,0,3.24,1.38l3.49.73a11,11,0,0,1,5,2.13,4.91,4.91,0,0,1,1.62,3.88,6,6,0,0,1-1,3.47,6.84,6.84,0,0,1-3,2.37A11.77,11.77,0,0,1,686.15,238Z"/><path d="M698.43,217.29v-3h3.36v3Zm.34,20.36v-16.3h2.71v16.3Z"/><path d="M706.62,237.65v-16.3h2.65V225h-.37a5.83,5.83,0,0,1,1.19-2.13A5,5,0,0,1,712,221.5a6.18,6.18,0,0,1,2.4-.45,5.4,5.4,0,0,1,3.37,1,5,5,0,0,1,1.73,3.07H719a5.61,5.61,0,0,1,2.17-3,6.16,6.16,0,0,1,3.64-1.09,5.86,5.86,0,0,1,3,.7,4.32,4.32,0,0,1,1.8,2.13,9.35,9.35,0,0,1,.6,3.61v10.16h-2.71v-10a5.57,5.57,0,0,0-.78-3.3,3,3,0,0,0-2.61-1.06,4.1,4.1,0,0,0-2.3.64,4,4,0,0,0-1.51,1.79,6.6,6.6,0,0,0-.52,2.74v9.22h-2.72v-10a5.49,5.49,0,0,0-.79-3.3,3,3,0,0,0-2.6-1.06,4,4,0,0,0-3.81,2.43,6.76,6.76,0,0,0-.52,2.74v9.22Z"/><path d="M735.27,243.69V221.35h2.65v3.86h-.34a5.37,5.37,0,0,1,2.14-3,6.41,6.41,0,0,1,3.8-1.12,7,7,0,0,1,3.81,1,6.63,6.63,0,0,1,2.52,2.92,11.8,11.8,0,0,1,0,9,6.61,6.61,0,0,1-6.33,4,6.37,6.37,0,0,1-3.79-1.13,5.64,5.64,0,0,1-2.15-3H738v9.86Zm7.68-7.91a4.56,4.56,0,0,0,3.68-1.63,8.65,8.65,0,0,0,0-9.31,5,5,0,0,0-7.33,0,8.54,8.54,0,0,0,0,9.31A4.54,4.54,0,0,0,743,235.78Z"/><path d="M759.83,238a4.65,4.65,0,0,1-3.74-1.48,6.32,6.32,0,0,1-1.26-4.23V214h2.72v18.05a5.27,5.27,0,0,0,.32,2,2.44,2.44,0,0,0,1,1.21,2.9,2.9,0,0,0,1.58.4,6.84,6.84,0,0,0,.79,0,4,4,0,0,0,.72-.15l-.07,2.28-1,.17A8.24,8.24,0,0,1,759.83,238Z"/><path d="M771.37,238a8,8,0,0,1-4.13-1,7.11,7.11,0,0,1-2.7-2.94,11,11,0,0,1,0-9,7,7,0,0,1,2.7-2.93,8.72,8.72,0,0,1,8.26,0,7,7,0,0,1,2.7,2.93,11,11,0,0,1,0,9,7.11,7.11,0,0,1-2.7,2.94A8,8,0,0,1,771.37,238Zm0-2.18a4.54,4.54,0,0,0,3.67-1.63,8.65,8.65,0,0,0,0-9.31,5,5,0,0,0-7.33,0,8.59,8.59,0,0,0,0,9.31A4.58,4.58,0,0,0,771.37,235.78Z"/><path d="M783.25,237.65v-16.3h2.65V225h-.37a5.49,5.49,0,0,1,2.3-2.93,6.79,6.79,0,0,1,3.67-1,6.7,6.7,0,0,1,3.24.7,4.42,4.42,0,0,1,1.93,2.13,8.94,8.94,0,0,1,.64,3.61v10.16h-2.72v-10a6.77,6.77,0,0,0-.39-2.49,2.71,2.71,0,0,0-1.21-1.44,4.25,4.25,0,0,0-2.13-.47,5.24,5.24,0,0,0-2.58.62,4.26,4.26,0,0,0-1.71,1.78,5.78,5.78,0,0,0-.6,2.7v9.29Z"/><path d="M818.94,238a17.45,17.45,0,0,1-3.47-.34,13.34,13.34,0,0,1-3-1,11.22,11.22,0,0,1-2.47-1.52l1-2.22a15.54,15.54,0,0,0,2.33,1.43,10.81,10.81,0,0,0,2.59.87,15.13,15.13,0,0,0,3,.29,7.29,7.29,0,0,0,4.48-1.13,3.55,3.55,0,0,0,1.46-3,3,3,0,0,0-.45-1.67,3.47,3.47,0,0,0-1.48-1.21,10.85,10.85,0,0,0-2.66-.84L816.8,227a9.33,9.33,0,0,1-4.72-2.19,5.46,5.46,0,0,1-1.56-4.08,6.37,6.37,0,0,1,1.09-3.69,7.15,7.15,0,0,1,3.06-2.45,11,11,0,0,1,4.48-.87,13.64,13.64,0,0,1,3.05.33,11.49,11.49,0,0,1,2.67,1,9.32,9.32,0,0,1,2.16,1.6l-1,2.14a9.85,9.85,0,0,0-3.19-2,10.63,10.63,0,0,0-3.76-.62,8.15,8.15,0,0,0-3.07.53,4.53,4.53,0,0,0-2,1.56,4,4,0,0,0-.72,2.37,3.36,3.36,0,0,0,1,2.55,6.53,6.53,0,0,0,3.24,1.38l3.49.73a11,11,0,0,1,5,2.13,4.89,4.89,0,0,1,1.63,3.88,5.91,5.91,0,0,1-1.06,3.47,6.78,6.78,0,0,1-3,2.37A11.77,11.77,0,0,1,818.94,238Z"/><path d="M838.91,238a9.12,9.12,0,0,1-4.45-1,7.12,7.12,0,0,1-2.88-2.9,9.18,9.18,0,0,1-1-4.5,9.33,9.33,0,0,1,1-4.44,7.44,7.44,0,0,1,6.84-4,7.11,7.11,0,0,1,3.8,1,6.45,6.45,0,0,1,2.43,2.75,9.78,9.78,0,0,1,.85,4.26v1H832.63v-1.78h11l-.54.44a6.52,6.52,0,0,0-1.19-4.18,4.18,4.18,0,0,0-3.47-1.49,5.09,5.09,0,0,0-2.9.79,4.85,4.85,0,0,0-1.8,2.18,8.14,8.14,0,0,0-.6,3.24v.2a8.26,8.26,0,0,0,.65,3.45,4.53,4.53,0,0,0,2,2.13,6.37,6.37,0,0,0,3.12.73,8.88,8.88,0,0,0,2.8-.46,7.75,7.75,0,0,0,2.57-1.49l.93,1.91a8,8,0,0,1-2.81,1.61A10.51,10.51,0,0,1,838.91,238Zm-1.48-18.79,3.46-6.78h2.92l-4.43,6.78Z"/><path d="M849.41,237.65v-16.3h2.65V225h-.37A5.54,5.54,0,0,1,854,222a6.81,6.81,0,0,1,3.67-1,6.7,6.7,0,0,1,3.24.7,4.42,4.42,0,0,1,1.93,2.13,8.94,8.94,0,0,1,.64,3.61v10.16h-2.72v-10a6.77,6.77,0,0,0-.39-2.49,2.74,2.74,0,0,0-1.2-1.44,4.31,4.31,0,0,0-2.13-.47,5.25,5.25,0,0,0-2.59.62,4.26,4.26,0,0,0-1.71,1.78,5.78,5.78,0,0,0-.6,2.7v9.29Z"/><path d="M875.81,238a9.1,9.1,0,0,1-4.44-1,7.14,7.14,0,0,1-2.89-2.9,10.35,10.35,0,0,1,0-8.94,7.41,7.41,0,0,1,6.84-4,7.05,7.05,0,0,1,3.79,1,6.45,6.45,0,0,1,2.43,2.75,9.64,9.64,0,0,1,.86,4.26v1H869.54v-1.78h11l-.54.44a6.58,6.58,0,0,0-1.19-4.18,4.18,4.18,0,0,0-3.47-1.49,5.09,5.09,0,0,0-2.9.79,4.78,4.78,0,0,0-1.8,2.18,8.14,8.14,0,0,0-.6,3.24v.2a8.11,8.11,0,0,0,.65,3.45,4.56,4.56,0,0,0,2,2.13,6.42,6.42,0,0,0,3.12.73,8.9,8.9,0,0,0,2.81-.46,7.62,7.62,0,0,0,2.56-1.49l.94,1.91a8.18,8.18,0,0,1-2.82,1.61A10.47,10.47,0,0,1,875.81,238Zm-1.47-18.79,3.45-6.78h2.92l-4.43,6.78Z"/><path d="M893.53,244a13.87,13.87,0,0,1-4-.55,10,10,0,0,1-3.3-1.66l.9-2a13,13,0,0,0,2,1.16,8.74,8.74,0,0,0,2.05.65,11.15,11.15,0,0,0,2.19.2,4.78,4.78,0,0,0,3.61-1.27,5.11,5.11,0,0,0,1.23-3.69v-3.79h.33a5.22,5.22,0,0,1-2.13,3.08,6.45,6.45,0,0,1-3.81,1.14,7.23,7.23,0,0,1-3.89-1,6.74,6.74,0,0,1-2.53-2.87,9.74,9.74,0,0,1-.89-4.26,9.62,9.62,0,0,1,.89-4.24,6.66,6.66,0,0,1,2.53-2.84,7.31,7.31,0,0,1,3.89-1,6.53,6.53,0,0,1,3.83,1.12,5.06,5.06,0,0,1,2.08,3h-.3v-3.86h2.65v15.13a9.4,9.4,0,0,1-.83,4.16,5.42,5.42,0,0,1-2.46,2.52A9,9,0,0,1,893.53,244Zm-.4-8.92a4.66,4.66,0,0,0,3.72-1.61,6.43,6.43,0,0,0,1.38-4.33,6.36,6.36,0,0,0-1.38-4.31,4.67,4.67,0,0,0-3.72-1.59,4.61,4.61,0,0,0-3.69,1.59,6.36,6.36,0,0,0-1.38,4.31,6.43,6.43,0,0,0,1.38,4.33A4.6,4.6,0,0,0,893.13,235.07Z"/><path d="M911.11,238a6.62,6.62,0,0,1-3-.66,5.19,5.19,0,0,1-2.1-1.79,4.4,4.4,0,0,1-.77-2.55,4.2,4.2,0,0,1,.92-2.86,5.46,5.46,0,0,1,3.05-1.47,30.48,30.48,0,0,1,5.83-.44h1.5V230h-1.47c-1.37,0-2.51.05-3.42.13a7.85,7.85,0,0,0-2.18.47,2.43,2.43,0,0,0-1.15.88,2.49,2.49,0,0,0-.33,1.34,2.9,2.9,0,0,0,1,2.25,3.7,3.7,0,0,0,2.6.87,4.33,4.33,0,0,0,2.36-.64,4.43,4.43,0,0,0,1.61-1.74,5.39,5.39,0,0,0,.59-2.55v-3.83a4.41,4.41,0,0,0-.84-3,3.55,3.55,0,0,0-2.75-.92,9.64,9.64,0,0,0-2.85.42,11,11,0,0,0-2.82,1.36l-.94-2a9.77,9.77,0,0,1,2-1.06,12.83,12.83,0,0,1,2.31-.69,11.91,11.91,0,0,1,2.32-.23,7.92,7.92,0,0,1,3.49.68,4.49,4.49,0,0,1,2,2.08,8.38,8.38,0,0,1,.67,3.58v10.26h-2.55v-3.79h.3a4.86,4.86,0,0,1-1,2.18,5,5,0,0,1-1.86,1.41A5.85,5.85,0,0,1,911.11,238Z"/><path d="M928.76,238a4.64,4.64,0,0,1-3.74-1.48,6.32,6.32,0,0,1-1.26-4.23V214h2.72v18.05a5.49,5.49,0,0,0,.31,2,2.51,2.51,0,0,0,1,1.21,2.87,2.87,0,0,0,1.58.4,6.84,6.84,0,0,0,.79,0,4.18,4.18,0,0,0,.72-.15l-.07,2.28-1,.17A8.24,8.24,0,0,1,928.76,238Z"/><rect class="cls-2" x="144.29" y="96.62" width="26.63" height="26.73"/><rect class="cls-2" x="144.28" y="145.86" width="26.76" height="26.65"/></g></g></svg>